<svg xmlns="http://www.w3.org/2000/svg" width="26.064" height="26" viewBox="0 0 26.064 26">
  <g id="Layer_2" data-name="Layer 2">
    <g id="Layer_1-2" data-name="Layer 1">
      <g>
        <path d="M0,3.217v19.5A3.281,3.281,0,0,0,3.282,26h19.5a3.281,3.281,0,0,0,3.281-3.281V3.217a3.237,3.237,0,0,0-.427-1.588H.427A3.237,3.237,0,0,0,0,3.217" fill="#d3161a"/>
        <path d="M26.064,22.783V3.281A3.281,3.281,0,0,0,22.782,0H3.281A3.281,3.281,0,0,0,0,3.281v19.5" fill="#5f5c5d"/>
        <path d="M.088,6.459V9.134l5.8-.021v4.87L.088,14v7.1H22.849V18.4l-4.8-11.956ZM13.73,13.983H7.2V9.113H13.73Zm1.292,1.765V9.113H17.63l2.611,6.635Z" fill="#fff"/>
      </g>
    </g>
  </g>
</svg>
